<svg width="66" height="63" viewBox="0 0 66 63" fill="#0f0e17" xmlns="http://www.w3.org/2000/svg">
<path d="M38.7002 48.836C33.4502 46.918 28.0502 46.6229 23.1002 47.9508C19.6502 48.836 16.3502 50.6065 13.3502 52.8196L11.2501 54.5901L10.6501 55.1803L12.0001 56.3606C12.1501 56.3606 12.1502 56.5082 12.3002 56.6557C12.6002 56.9508 12.9002 57.0983 13.3502 57.3934L14.2501 57.9836L15.1501 57.2459C15.3001 57.0983 15.6001 56.8032 15.9001 56.6557C18.6001 54.4426 21.6001 52.9672 24.7501 52.2295C28.8001 51.1967 33.1501 51.3442 37.5001 52.9672C41.1001 54.295 48.4502 55.918 57.3002 52.2295L57.6002 52.0819L58.0502 51.6393C58.0502 51.4918 58.2002 51.4918 58.3502 51.3442C59.1002 50.459 59.8502 49.5737 60.4502 48.5409L63.4502 43.9672L58.6501 46.6229C51.6001 50.459 45.1502 51.1967 38.7002 48.836Z" fill="white"/>
<path d="M18.15 32.9016C22.2 31.8688 26.55 32.0164 30.9 33.6393C35.7 35.4098 48 37.918 61.8 25.6721L64.05 23.459L64.2 23.3115L64.8 22.7213L64.5 21.9836C64.35 21.3934 64.05 20.6557 63.75 19.918L63 17.8524L61.5 19.3278C61.35 19.6229 61.05 19.7705 60.75 20.0655C54.15 26.7049 43.95 33.4918 32.25 29.3606C27 27.4426 21.6 27.1475 16.65 28.4754C11.85 29.8033 7.65 32.3115 3.75 35.8524V35.7049L1.5 38.0656C1.5 38.2131 1.35003 38.2131 1.20003 38.3607L0.75 38.8033L0.900009 39.3934C1.05001 40.1311 1.35 40.8688 1.5 41.6065L2.40001 43.9672L3.90001 42.0492C4.05001 41.7541 4.35 41.6066 4.5 41.3115C7.65 38.5082 12 34.5246 18.15 32.9016Z" fill="white"/>
<path d="M3.60004 30.2459C7.05004 26.7049 10.95 24.4918 15.15 23.3114C19.2 22.2786 23.55 22.4262 27.9 24.0491C41.4 28.918 53.1 20.9508 58.2 16.6721L60.15 14.7541L60.9 14.1639L60.3 13.2787C59.85 12.836 59.55 12.2459 59.1 11.6557L58.2 10.4753L57.15 11.5081C57 11.6557 56.7 11.9508 56.55 12.0983C50.25 17.9999 40.5 24.0492 29.4 19.918C24.15 18 18.75 17.7049 13.8 19.0327C10.65 19.918 7.65001 21.3934 4.65001 23.3114L1.5 25.8196C1.2 26.1147 1.05 26.2623 0.75 26.5574L0.450027 26.8524V27.2951C0.300027 28.3278 0.300009 29.3606 0.150009 30.2459L0 33.9344L2.55002 31.2786C2.85002 30.9836 3.15004 30.541 3.60004 30.2459Z" fill="white"/>
<path d="M43.0498 58.8689L42.7498 59.7542L43.0498 58.8689C42.5998 58.7214 42.2999 58.5738 41.8499 58.4262C36.5999 56.5082 31.1998 56.2132 26.2498 57.541C25.1998 57.8361 24.1499 58.1312 23.0999 58.5738L19.4998 60.1968L18.5999 60.6394L21.5999 61.6722C22.4999 61.9673 23.3998 62.2623 24.2998 62.5574L24.7498 62.705L25.1998 62.5574C25.6498 62.4099 26.0998 62.1148 26.5498 62.1148C26.8498 62.1148 27.1498 61.9673 27.4498 61.8197C31.0498 60.9345 34.9498 60.9345 39.1498 62.2623C39.5998 62.4099 39.8999 62.5574 40.3499 62.705L41.0999 63L41.5498 62.8525C42.5998 62.5574 43.7998 62.2623 44.6998 61.8197L48.8998 60.3443L44.5498 59.3115C44.0998 59.164 43.4998 59.0164 43.0498 58.8689Z" fill="white"/>
<path d="M66.0002 28.3278L63.7502 30.5409C63.4502 30.836 63.1502 31.131 62.8502 31.4261C56.7002 37.1802 46.8002 43.3769 35.7002 39.2458C30.4502 37.3278 25.0502 37.0327 20.1002 38.3606C15.4502 39.6884 11.2502 42.0491 7.50017 45.5901L5.55019 47.6556L4.9502 48.3933L5.55019 49.2786C6.00019 49.8688 6.3002 50.3114 6.6002 50.9016L7.50017 52.2294L8.55019 50.9016C8.70019 50.754 9.00018 50.4589 9.15018 50.3114C12.7502 46.4753 16.6502 44.1146 21.1502 42.9343C25.2002 41.9015 29.5502 42.0491 33.9002 43.672C37.6502 44.9999 41.5502 45.4425 45.4502 44.9999C52.3502 44.2622 59.2502 40.4262 64.3502 36.1475C64.6502 35.8524 64.9502 35.7048 65.2502 35.4098L65.7002 34.9671V34.5245C65.7002 33.6393 65.8502 32.6065 65.8502 31.7212L66.0002 28.3278Z" fill="white"/>
<path d="M8.99979 14.7541L8.5498 13.8689L8.99979 14.7541C9.89979 14.3115 10.9498 14.0164 11.8498 13.7213C15.8998 12.6885 20.2498 12.8361 24.5998 14.459C27.4498 15.4918 30.2998 15.9344 33.4498 15.9344C39.7498 15.9344 46.0498 13.7213 51.8998 9.44262L54.1498 7.67211L54.8998 7.08196L53.5498 6.04915C53.0998 5.60653 52.4998 5.16392 51.8998 4.86884L50.9998 4.27869L50.2498 4.86884C49.9498 5.01638 49.7998 5.31146 49.4998 5.459C41.5498 11.3606 33.5998 12.9836 26.0998 10.1803C20.6998 8.26229 15.2998 7.81967 9.8998 9.44262C9.4498 9.59016 8.9998 9.73769 8.3998 9.88523L8.09982 10.0328L7.6498 10.4754C7.6498 10.6229 7.49982 10.6229 7.34982 10.7705C6.74982 11.6557 5.9998 12.3935 5.3998 13.2787L2.5498 17.5574L7.19981 15.1967C7.94981 15.1967 8.54979 14.9017 8.99979 14.7541Z" fill="white"/>
<path d="M21.3 4.72129L21.75 4.86884C23.7 5.60654 26.7 6.34425 30.45 6.34425C34.35 6.34425 38.1 5.45899 41.85 3.98358L46.5 1.77047L43.35 0.737705C42.45 0.442623 41.55 0.147541 40.5 0H40.05L39.6 0.147505C39.15 0.295046 38.7 0.590164 38.25 0.737705C33.75 2.36066 29.25 2.65574 24.9 1.47541C24.45 1.32787 24 1.1803 23.55 1.03276L23.1 0.88521L22.65 1.03276C21.75 1.32784 20.85 1.62294 19.95 2.06557L16.5 3.54098L20.1 4.57374C20.4 4.4262 20.85 4.57375 21.3 4.72129Z" fill="white"/>
</svg>
